<mxfile host="app.diagrams.net" modified="2023-12-13T09:23:12.733Z" agent="Mozilla/5.0 (Macintosh; Intel Mac OS X 10_15_7) AppleWebKit/605.1.15 (KHTML, like Gecko) Version/15.2 Safari/605.1.15" etag="X1FGneyfL_vEkiaIdCR_" version="22.1.8" type="device">
  <diagram name="Страница — 1" id="zbx2GcKLtXs4oYEVn3EA">
    <mxGraphModel dx="736" dy="522" grid="0" gridSize="10" guides="1" tooltips="1" connect="1" arrows="1" fold="1" page="1" pageScale="1" pageWidth="827" pageHeight="1169" math="0" shadow="0">
      <root>
        <mxCell id="0" />
        <mxCell id="1" parent="0" />
        <mxCell id="3Rcljeo7bTvNAtQNGWG2-14" style="edgeStyle=orthogonalEdgeStyle;rounded=0;orthogonalLoop=1;jettySize=auto;html=1;startArrow=classic;startFill=1;" parent="1" source="3Rcljeo7bTvNAtQNGWG2-1" target="3Rcljeo7bTvNAtQNGWG2-5" edge="1">
          <mxGeometry relative="1" as="geometry">
            <Array as="points">
              <mxPoint x="332" y="140" />
              <mxPoint x="332" y="140" />
            </Array>
          </mxGeometry>
        </mxCell>
        <mxCell id="3Rcljeo7bTvNAtQNGWG2-1" value="WebClient (Browser)" style="verticalAlign=top;align=left;spacingTop=8;spacingLeft=2;spacingRight=12;shape=cube;size=10;direction=south;fontStyle=4;html=1;whiteSpace=wrap;" parent="1" vertex="1">
          <mxGeometry x="22" y="80" width="200" height="120" as="geometry" />
        </mxCell>
        <mxCell id="3Rcljeo7bTvNAtQNGWG2-2" value="React" style="shape=module;align=left;spacingLeft=20;align=center;verticalAlign=top;whiteSpace=wrap;html=1;" parent="1" vertex="1">
          <mxGeometry x="52" y="120" width="140" height="50" as="geometry" />
        </mxCell>
        <mxCell id="3Rcljeo7bTvNAtQNGWG2-4" value="(OSType=any,Library=React)" style="text;strokeColor=none;fillColor=none;align=center;verticalAlign=top;spacingLeft=4;spacingRight=4;overflow=hidden;rotatable=0;points=[[0,0.5],[1,0.5]];portConstraint=eastwest;whiteSpace=wrap;html=1;" parent="1" vertex="1">
          <mxGeometry x="22" y="174" width="190" height="26" as="geometry" />
        </mxCell>
        <mxCell id="3Rcljeo7bTvNAtQNGWG2-5" value="WebServer" style="verticalAlign=top;align=left;spacingTop=8;spacingLeft=2;spacingRight=12;shape=cube;size=10;direction=south;fontStyle=4;html=1;whiteSpace=wrap;" parent="1" vertex="1">
          <mxGeometry x="325" y="80" width="210" height="350" as="geometry" />
        </mxCell>
        <mxCell id="3Rcljeo7bTvNAtQNGWG2-7" value="(OSType=any,Framework=Nest)" style="text;strokeColor=none;fillColor=none;align=center;verticalAlign=top;spacingLeft=4;spacingRight=4;overflow=hidden;rotatable=0;points=[[0,0.5],[1,0.5]];portConstraint=eastwest;whiteSpace=wrap;html=1;" parent="1" vertex="1">
          <mxGeometry x="325" y="404" width="200" height="26" as="geometry" />
        </mxCell>
        <mxCell id="3Rcljeo7bTvNAtQNGWG2-9" value="DB Server&lt;span style=&quot;white-space: pre;&quot;&gt;&#x9;&lt;/span&gt;" style="verticalAlign=top;align=left;spacingTop=8;spacingLeft=2;spacingRight=12;shape=cube;size=10;direction=south;fontStyle=4;html=1;whiteSpace=wrap;" parent="1" vertex="1">
          <mxGeometry x="22" y="270" width="200" height="160" as="geometry" />
        </mxCell>
        <mxCell id="3Rcljeo7bTvNAtQNGWG2-11" value="(OSType=any,DBMS=MSSQL)" style="text;strokeColor=none;fillColor=none;align=center;verticalAlign=top;spacingLeft=4;spacingRight=4;overflow=hidden;rotatable=0;points=[[0,0.5],[1,0.5]];portConstraint=eastwest;whiteSpace=wrap;html=1;" parent="1" vertex="1">
          <mxGeometry x="12" y="404" width="210" height="26" as="geometry" />
        </mxCell>
        <mxCell id="3Rcljeo7bTvNAtQNGWG2-13" value="Database" style="shape=cylinder3;whiteSpace=wrap;html=1;boundedLbl=1;backgroundOutline=1;size=15;" parent="1" vertex="1">
          <mxGeometry x="37" y="327.5" width="160" height="55" as="geometry" />
        </mxCell>
        <mxCell id="3Rcljeo7bTvNAtQNGWG2-17" value="www/http" style="text;strokeColor=none;fillColor=none;align=center;verticalAlign=top;spacingLeft=4;spacingRight=4;overflow=hidden;rotatable=0;points=[[0,0.5],[1,0.5]];portConstraint=eastwest;whiteSpace=wrap;html=1;" parent="1" vertex="1">
          <mxGeometry x="205" y="110" width="140" height="26" as="geometry" />
        </mxCell>
        <mxCell id="3Rcljeo7bTvNAtQNGWG2-18" value="tcp/ip" style="text;strokeColor=none;fillColor=none;align=center;verticalAlign=top;spacingLeft=4;spacingRight=4;overflow=hidden;rotatable=0;points=[[0,0.5],[1,0.5]];portConstraint=eastwest;whiteSpace=wrap;html=1;" parent="1" vertex="1">
          <mxGeometry x="205" y="320" width="140" height="26" as="geometry" />
        </mxCell>
        <mxCell id="3Rcljeo7bTvNAtQNGWG2-22" value="" style="edgeStyle=orthogonalEdgeStyle;rounded=0;orthogonalLoop=1;jettySize=auto;html=1;startArrow=classic;startFill=1;" parent="1" source="3Rcljeo7bTvNAtQNGWG2-9" target="3Rcljeo7bTvNAtQNGWG2-5" edge="1">
          <mxGeometry relative="1" as="geometry">
            <mxPoint x="242" y="355" as="sourcePoint" />
            <mxPoint x="362" y="355" as="targetPoint" />
            <Array as="points">
              <mxPoint x="332" y="355" />
              <mxPoint x="332" y="355" />
            </Array>
          </mxGeometry>
        </mxCell>
        <mxCell id="2eNvBFCcLTC__rvVOUhq-3" value="Nest" style="shape=module;align=left;spacingLeft=20;align=center;verticalAlign=top;whiteSpace=wrap;html=1;" parent="1" vertex="1">
          <mxGeometry x="355" y="224" width="140" height="50" as="geometry" />
        </mxCell>
      </root>
    </mxGraphModel>
  </diagram>
</mxfile>
